<svg xmlns="http://www.w3.org/2000/svg" width="160" height="160" viewBox="0 0 160 160" role="img" aria-label="QR code placeholder">
  <rect width="160" height="160" fill="#fff"/>
  <rect x="8" y="8" width="48" height="48" fill="none" stroke="#0f172a" stroke-width="6"/>
  <rect x="104" y="8" width="48" height="48" fill="none" stroke="#0f172a" stroke-width="6"/>
  <rect x="8" y="104" width="48" height="48" fill="none" stroke="#0f172a" stroke-width="6"/>
  <rect x="20" y="20" width="24" height="24" fill="#0f172a"/>
  <rect x="116" y="20" width="24" height="24" fill="#0f172a"/>
  <rect x="20" y="116" width="24" height="24" fill="#0f172a"/>
  <g fill="#0f172a">
    <rect x="72" y="16" width="8" height="8"/><rect x="88" y="16" width="8" height="8"/>
    <rect x="72" y="32" width="8" height="8"/><rect x="80" y="40" width="8" height="8"/>
    <rect x="64" y="64" width="8" height="8"/><rect x="80" y="64" width="8" height="8"/>
    <rect x="96" y="64" width="8" height="8"/><rect x="112" y="72" width="8" height="8"/>
    <rect x="64" y="80" width="8" height="8"/><rect x="88" y="88" width="8" height="8"/>
    <rect x="104" y="96" width="8" height="8"/><rect x="72" y="104" width="8" height="8"/>
    <rect x="96" y="112" width="8" height="8"/><rect x="120" y="120" width="8" height="8"/>
    <rect x="136" y="104" width="8" height="8"/><rect x="64" y="120" width="8" height="8"/>
  </g>
</svg>
