<svg xmlns="http://www.w3.org/2000/svg" width="480" height="360" viewBox="0 0 480 360" fill="none" aria-hidden="true">
  <defs>
    <linearGradient id="phg" x1="0%" y1="0%" x2="100%" y2="100%">
      <stop offset="0%" stop-color="#33beb3" stop-opacity="0.12"/>
      <stop offset="55%" stop-color="#0f172a" stop-opacity="0.04"/>
      <stop offset="100%" stop-color="#33beb3" stop-opacity="0.08"/>
    </linearGradient>
    <linearGradient id="phg2" x1="0%" y1="100%" x2="100%" y2="0%">
      <stop offset="0%" stop-color="#33beb3" stop-opacity="0.25"/>
      <stop offset="100%" stop-color="#64748b" stop-opacity="0.12"/>
    </linearGradient>
  </defs>
  <rect width="480" height="360" rx="20" fill="url(#phg)"/>
  <rect x="48" y="56" width="168" height="112" rx="12" fill="#fff" stroke="#33beb3" stroke-opacity="0.35" stroke-width="1.5"/>
  <rect x="72" y="84" width="72" height="8" rx="4" fill="#0f172a" fill-opacity="0.12"/>
  <rect x="72" y="100" width="120" height="6" rx="3" fill="#0f172a" fill-opacity="0.08"/>
  <circle cx="96" cy="132" r="14" stroke="#33beb3" stroke-opacity="0.5" stroke-width="2" fill="none"/>
  <path d="M92 132l4 4 8-10" stroke="#33beb3" stroke-width="2" stroke-linecap="round" stroke-linejoin="round"/>
  <rect x="264" y="56" width="168" height="112" rx="12" fill="#fff" fill-opacity="0.85" stroke="#cbd5e1" stroke-width="1.25"/>
  <rect x="288" y="84" width="88" height="8" rx="4" fill="#0f172a" fill-opacity="0.1"/>
  <rect x="288" y="100" width="56" height="6" rx="3" fill="#0f172a" fill-opacity="0.06"/>
  <rect x="288" y="124" width="120" height="28" rx="6" fill="url(#phg2)"/>
  <rect x="72" y="200" width="360" height="104" rx="14" fill="#fff" stroke="#33beb3" stroke-opacity="0.28" stroke-width="1.5"/>
  <rect x="96" y="228" width="100" height="10" rx="5" fill="#0f172a" fill-opacity="0.1"/>
  <rect x="96" y="248" width="160" height="7" rx="3.5" fill="#0f172a" fill-opacity="0.06"/>
  <g opacity="0.9">
    <rect x="96" y="268" width="48" height="20" rx="6" fill="#33beb3" fill-opacity="0.2"/>
    <rect x="152" y="268" width="48" height="20" rx="6" fill="#33beb3" fill-opacity="0.12"/>
    <rect x="208" y="268" width="48" height="20" rx="6" fill="#33beb3" fill-opacity="0.08"/>
  </g>
  <circle cx="392" cy="248" r="36" stroke="#33beb3" stroke-opacity="0.2" stroke-width="1.5" fill="none"/>
  <circle cx="392" cy="248" r="22" stroke="#33beb3" stroke-opacity="0.35" stroke-width="1.5" fill="none"/>
</svg>
